<svg width="200" height="72" viewBox="0 0 200 72" fill="none" xmlns="http://www.w3.org/2000/svg" role="img" aria-label="OOSM">
  <defs>
    <linearGradient id="oosmWordBlue" x1="0" y1="0" x2="200" y2="72" gradientUnits="userSpaceOnUse">
      <stop stop-color="#5B8CFF"/>
      <stop offset="1" stop-color="#2563EB"/>
    </linearGradient>
    <linearGradient id="oosmLeaf" x1="18" y1="12" x2="54" y2="60" gradientUnits="userSpaceOnUse">
      <stop stop-color="#84CC16"/>
      <stop offset="1" stop-color="#3F6212"/>
    </linearGradient>
  </defs>
  <g transform="translate(8 8)">
    <rect width="56" height="56" rx="16" fill="#FFFFFF" stroke="#E2E8F0"/>
    <ellipse cx="28" cy="24" rx="10" ry="14" fill="url(#oosmLeaf)" opacity="0.22"/>
    <path d="M28 14c-4.2 0-7.5 3.2-7.5 7.2 0 2.6 1.4 4.9 3.5 6.1-2.8 1.5-4.7 4.4-4.7 7.8 0 4.9 4 8.9 8.9 8.9 1.2 0 2.3-.2 3.3-.7 1 2.6 3.5 4.4 6.4 4.4 3.8 0 6.9-3.1 6.9-6.9 0-2.2-1-4.1-2.6-5.4 2.2-1.3 3.7-3.7 3.7-6.5 0-4.1-3.3-7.4-7.4-7.4-1.6 0-3.1.5-4.3 1.3-1.6-2.5-4.4-4.1-7.7-4.1Z" fill="url(#oosmLeaf)"/>
    <text x="28" y="36" text-anchor="middle" font-family="Segoe UI, Inter, system-ui, sans-serif" font-size="13" font-weight="800" fill="url(#oosmWordBlue)" letter-spacing="0.8">OOSM</text>
  </g>
  <text x="84" y="40" font-family="Segoe UI, Inter, system-ui, sans-serif" font-size="34" font-weight="800" fill="url(#oosmWordBlue)" letter-spacing="1.2">OOSM</text>
  <text x="84" y="58" font-family="Segoe UI, Inter, system-ui, sans-serif" font-size="11" font-weight="600" fill="#64748B" letter-spacing="2.4">OIL MILL SYSTEM</text>
</svg>
