<svg xmlns="http://www.w3.org/2000/svg" viewBox="0 0 64 64" role="img" aria-label="OOSM">
  <defs>
    <linearGradient id="fo" x1="24" y1="14" x2="40" y2="38" gradientUnits="userSpaceOnUse">
      <stop stop-color="#E8C547"/>
      <stop offset="1" stop-color="#B8860B"/>
    </linearGradient>
    <linearGradient id="fg" x1="12" y1="44" x2="52" y2="58" gradientUnits="userSpaceOnUse">
      <stop stop-color="#5C7A3A"/>
      <stop offset="1" stop-color="#3D5C2E"/>
    </linearGradient>
  </defs>
  <rect width="64" height="64" rx="16" fill="#FFFCF5"/>
  <rect x="1" y="1" width="62" height="62" rx="15" fill="none" stroke="#E8DFC8"/>
  <path d="M32 12c-1.6 0-2.9 2.2-2.9 5.2 0 2 1 3.8 2.4 4.9-2.9 1.6-4.8 4.4-4.8 7.8 0 5 4.1 9.1 9.1 9.1s9.1-4.1 9.1-9.1c0-3.4-1.9-6.2-4.8-7.8 1.4-1.1 2.4-2.9 2.4-4.9 0-3-1.3-5.2-2.9-5.2Z" fill="url(#fo)"/>
  <ellipse cx="32" cy="28" rx="5" ry="6" fill="#FFF8E7" opacity="0.45"/>
  <text x="32" y="54" text-anchor="middle" font-family="Segoe UI, system-ui, sans-serif" font-size="10" font-weight="800" fill="url(#fg)" letter-spacing="0.6">OOSM</text>
</svg>
